<mxfile host="app.diagrams.net" modified="2024-03-19T03:09:15.059Z" agent="Mozilla/5.0 (X11; Linux x86_64) AppleWebKit/537.36 (KHTML, like Gecko) Chrome/121.0.0.0 Safari/537.36" version="24.0.7" etag="EDXXwX4-zzhc_iI34UNk" type="github">
  <diagram name="第 1 页" id="BE_PAi5nMcG8C3IbTK2u">
    <mxGraphModel>
      <root>
        <mxCell id="0" />
        <mxCell id="1" parent="0" />
      </root>
    </mxGraphModel>
  </diagram>
</mxfile>
